# xmcd
#
# Track frame offsets:
#	150
#	10505
#	25855
#	39020
#	57850
#	74502
#	91595
#	102772
#	115010
#	126325
#	140532
#	155217
#	168020
#	178397
#	194445
#
# Disc length: 2835 seconds
#
# Revision: 2
# Processed by: cddbd v1.5.1PL0 Copyright (c) Steve Scherf et al.
# Submitted via: audiograbber 1.83.01
#
DISCID=bf0b110f
DTITLE=Wally Knash - Raisin' Rosin
DYEAR=1900
DGENRE=
TTITLE0=Raisin' Rosin
TTITLE1=Lost Stringer Blues
TTITLE2=Alberta Champion Waltz
TTITLE3=Ukrainian Medley
TTITLE4=When The Last Teardrop Falls
TTITLE5=Western Swing Polka
TTITLE6=Lora Lee Waltz
TTITLE7=Fiddler's True Dream
TTITLE8=Prairie Wind Jig
TTITLE9=Patti Anne Waltz
TTITLE10=Fiddle/Banjo Duel
TTITLE11=Love Letters
TTITLE12=Hot Canary
TTITLE13=Texas Crapshooter
TTITLE14=Scottish Medley
EXTD=
EXTT0=
EXTT1=
EXTT2=
EXTT3=
EXTT4=
EXTT5=
EXTT6=
EXTT7=
EXTT8=
EXTT9=
EXTT10=
EXTT11=
EXTT12=
EXTT13=
EXTT14=
PLAYORDER=
